<svg width="22" height="16" viewBox="0 0 22 16" fill="none" xmlns="http://www.w3.org/2000/svg">
<path d="M5.2 12.5C6.09277 12.5 6.96179 12.6042 7.80708 12.8125C8.65236 13.0208 9.48333 13.3333 10.3 13.75V3.075C9.55 2.575 8.73651 2.1875 7.85953 1.9125C6.98256 1.6375 6.09605 1.5 5.2 1.5C4.56667 1.5 3.94583 1.57917 3.3375 1.7375C2.72917 1.89583 2.11667 2.09167 1.5 2.325V13.175C2.01667 12.9417 2.60417 12.7708 3.2625 12.6625C3.92083 12.5542 4.56667 12.5 5.2 12.5ZM11.8 13.75C12.6333 13.3333 13.45 13.0208 14.25 12.8125C15.05 12.6042 15.9 12.5 16.8 12.5C17.4333 12.5 18.0875 12.55 18.7625 12.65C19.4375 12.75 20.0167 12.8833 20.5 13.05V2.325C19.9333 2.04167 19.3348 1.83333 18.7045 1.7C18.0741 1.56667 17.4393 1.5 16.8 1.5C15.9 1.5 15.0292 1.6375 14.1875 1.9125C13.3458 2.1875 12.55 2.575 11.8 3.075V13.75ZM11.05 16C10.2 15.3667 9.275 14.8792 8.275 14.5375C7.275 14.1958 6.25 14.025 5.2 14.025C4.59105 14.025 3.99298 14.1 3.4058 14.25C2.8186 14.4 2.23333 14.5833 1.65 14.8C1.265 14.9833 0.89375 14.9583 0.53625 14.725C0.17875 14.4917 0 14.1583 0 13.725V2.15C0 1.9 0.0583333 1.67083 0.175 1.4625C0.291667 1.25417 0.466667 1.09167 0.7 0.975C1.4 0.641667 2.12829 0.395833 2.88488 0.2375C3.64144 0.0791667 4.41315 0 5.2 0C6.25 0 7.27083 0.141667 8.2625 0.425C9.25417 0.708333 10.1833 1.14167 11.05 1.725C11.9 1.14167 12.8125 0.708333 13.7875 0.425C14.7625 0.141667 15.7667 0 16.8 0C17.5811 0 18.3472 0.0791667 19.0984 0.2375C19.8495 0.395833 20.575 0.641667 21.275 0.975C21.5083 1.09167 21.6875 1.25417 21.8125 1.4625C21.9375 1.67083 22 1.9 22 2.15V13.725C22 14.1899 21.8125 14.5436 21.4375 14.7862C21.0625 15.0287 20.6917 15.0333 20.325 14.8C19.7583 14.5667 19.1814 14.3792 18.5942 14.2375C18.007 14.0958 17.409 14.025 16.8 14.025C15.75 14.025 14.7417 14.2 13.775 14.55C12.8083 14.9 11.9 15.3833 11.05 16Z" fill="#F2A001"/>
</svg>
