<svg width="78" height="35" viewBox="0 0 78 35" fill="none" xmlns="http://www.w3.org/2000/svg">
<g id="Fox">
<path d="M0.44009 34.0481C0.37609 33.5681 0.37609 33.056 0.44009 32.5121C1.97609 32.3521 3.08009 32.2081 3.75209 32.0801C4.42409 31.9201 4.84009 31.6001 5.00009 31.1201C5.16009 30.6401 5.24009 29.8241 5.24009 28.6721V6.35205C5.24009 5.00805 5.16009 4.04805 5.00009 3.47205C4.84009 2.89605 4.42409 2.52805 3.75209 2.36805C3.11209 2.17605 2.05609 2.01605 0.58409 1.88805C0.52009 1.40805 0.52009 0.896051 0.58409 0.352051C1.35209 0.352051 1.99209 0.368051 2.50409 0.40005C3.04809 0.40005 3.60809 0.40005 4.18409 0.40005C4.76009 0.40005 5.48009 0.41605 6.34409 0.44805C7.24009 0.44805 8.42409 0.44805 9.89609 0.44805C11.7201 0.44805 13.5761 0.44805 15.4641 0.44805C17.3521 0.41605 19.0961 0.40005 20.6961 0.40005C22.3281 0.40005 23.6401 0.40005 24.6321 0.40005C25.6561 0.368051 26.2001 0.352051 26.2641 0.352051C26.4241 1.56805 26.6001 2.83205 26.7921 4.14405C26.9841 5.45605 27.1921 6.84805 27.4161 8.32005C27.1601 8.35205 26.8881 8.36805 26.6001 8.36805C26.3441 8.36805 26.0881 8.35205 25.8321 8.32005C25.0001 6.17605 24.0241 4.67205 22.9041 3.80805C21.7521 2.88005 19.9441 2.41605 17.4801 2.41605H10.5201V16.0001H13.6881C15.2241 16.0001 16.3921 15.9041 17.1921 15.7121C17.9921 15.4881 18.5841 15.0241 18.9681 14.3201C19.3521 13.5841 19.6561 12.4321 19.8801 10.8641C20.4561 10.7681 21.0001 10.7681 21.5121 10.8641C21.4801 12.2081 21.4481 13.2801 21.4161 14.0801C21.4161 14.8481 21.4161 15.4561 21.4161 15.9041C21.4161 16.3521 21.4161 16.7681 21.4161 17.1521C21.4161 17.5041 21.4161 17.9041 21.4161 18.3521C21.4161 18.8001 21.4161 19.4241 21.4161 20.2241C21.4481 21.0241 21.4801 22.1121 21.5121 23.4881C21.0321 23.5841 20.4881 23.5841 19.8801 23.4881C19.6881 21.7921 19.4001 20.5761 19.0161 19.8401C18.6321 19.0721 18.0561 18.5921 17.2881 18.4001C16.5521 18.208 15.4961 18.1121 14.1201 18.1121H10.5201V28.0481C10.5201 29.0401 10.5521 29.8081 10.6161 30.3521C10.6801 30.8961 10.8721 31.3281 11.1921 31.6481C11.5121 31.9361 11.9921 32.1281 12.6321 32.2241C13.3041 32.3201 14.2641 32.416 15.5121 32.5121C15.6081 33.0241 15.6081 33.5361 15.5121 34.0481C14.8401 34.0481 14.0241 34.0321 13.0641 34.0001C12.1041 34.0001 11.1441 34.0001 10.1841 34.0001C9.25609 33.9681 8.47209 33.9521 7.83209 33.9521C7.22409 33.9521 6.47209 33.9681 5.57609 34.0001C4.68009 34.0001 3.76809 34.0001 2.84009 34.0001C1.94409 34.0321 1.14409 34.0481 0.44009 34.0481Z" fill="#141414"/>
<path d="M39.0193 34.5761C36.6833 34.5761 34.6353 34.0801 32.8753 33.0881C31.1473 32.0641 29.8033 30.6721 28.8433 28.9121C27.8833 27.1201 27.4033 25.0721 27.4033 22.7681C27.4033 20.2721 27.8993 18.0961 28.8913 16.2401C29.9153 14.3841 31.3393 12.9441 33.1633 11.9201C34.9873 10.8961 37.0833 10.3841 39.4513 10.3841C41.7873 10.3841 43.8193 10.8961 45.5473 11.9201C47.2753 12.9441 48.6193 14.3521 49.5793 16.1441C50.5393 17.9361 51.0193 19.9681 51.0193 22.2401C51.0193 24.5761 50.5073 26.6881 49.4833 28.5761C48.4913 30.4321 47.0993 31.9041 45.3073 32.9921C43.5153 34.0481 41.4193 34.5761 39.0193 34.5761ZM32.8273 22.1921C32.8273 25.4561 33.3553 28.0481 34.4113 29.9681C35.4993 31.8561 37.1153 32.8001 39.2593 32.8001C41.3073 32.8001 42.8753 31.9041 43.9633 30.1121C45.0513 28.2881 45.5953 25.8561 45.5953 22.8161C45.5953 19.5841 45.0513 17.0081 43.9633 15.0881C42.8753 13.1681 41.2913 12.2081 39.2113 12.2081C37.1633 12.2081 35.5793 13.0881 34.4593 14.8481C33.3713 16.6081 32.8273 19.0561 32.8273 22.1921Z" fill="#141414"/>
<path d="M65.0717 34.0481C64.9757 33.5681 64.9757 33.0721 65.0717 32.5601C66.0957 32.4961 66.7837 32.4161 67.1357 32.3201C67.4877 32.1921 67.6637 32.0161 67.6637 31.7921C67.6637 31.6641 67.5837 31.4401 67.4237 31.1201C67.2637 30.8001 67.0557 30.4481 66.7997 30.0641C66.2557 29.2321 65.7117 28.4001 65.1677 27.5681C64.6237 26.7041 64.0157 25.7761 63.3437 24.7841C62.5437 25.8081 61.7437 26.8321 60.9437 27.8561C60.1757 28.8801 59.4717 29.8401 58.8317 30.7361C58.7357 30.8641 58.6397 31.0081 58.5437 31.1681C58.4477 31.3281 58.3997 31.4881 58.3997 31.6481C58.3997 31.9041 58.6077 32.1121 59.0237 32.2721C59.4717 32.4001 60.2397 32.4961 61.3277 32.5601C61.4237 33.0721 61.4237 33.5681 61.3277 34.0481C60.5277 34.0481 59.6957 34.0321 58.8317 34.0001C57.9677 33.9681 57.1517 33.9521 56.3837 33.9521C55.5517 33.9521 54.7677 33.9681 54.0317 34.0001C53.2957 34.0321 52.5597 34.0481 51.8237 34.0481C51.7277 33.5041 51.7277 33.0081 51.8237 32.5601C52.8157 32.4321 53.5837 32.2721 54.1277 32.0801C54.6717 31.8561 55.1517 31.5521 55.5677 31.1681C56.0157 30.7521 56.5117 30.1921 57.0557 29.4881L62.1917 23.0081C61.4557 21.9201 60.6397 20.7201 59.7437 19.4081C58.8477 18.0641 57.9357 16.7201 57.0077 15.3761C56.6237 14.7681 56.2557 14.2881 55.9037 13.9361C55.5517 13.5841 55.1197 13.3121 54.6077 13.1201C54.0957 12.8961 53.3757 12.7361 52.4477 12.6401C52.3517 12.1921 52.3517 11.6801 52.4477 11.1041C53.3757 11.1041 54.2877 11.1201 55.1837 11.1521C56.1117 11.1841 57.1517 11.2001 58.3037 11.2001C59.2317 11.2001 60.3037 11.1841 61.5197 11.1521C62.7357 11.1201 63.7117 11.1041 64.4477 11.1041C64.5437 11.6161 64.5437 12.1281 64.4477 12.6401C63.4557 12.7041 62.7677 12.8001 62.3837 12.9281C62.0317 13.0241 61.8557 13.2001 61.8557 13.4561C61.8557 13.5841 61.9037 13.7601 61.9997 13.9841C62.1277 14.2081 62.2717 14.4481 62.4317 14.7041C62.9757 15.5681 63.5037 16.4161 64.0157 17.2481C64.5597 18.0801 65.1037 18.9121 65.6477 19.7441C66.4477 18.7521 67.1677 17.8241 67.8077 16.9601C68.4797 16.0641 69.0877 15.2161 69.6317 14.4161C69.8877 14.0641 70.0157 13.7761 70.0157 13.5521C70.0157 13.2641 69.8077 13.0721 69.3917 12.9761C69.0077 12.8481 68.3197 12.7361 67.3277 12.6401C67.2317 12.1281 67.2317 11.6161 67.3277 11.1041C68.0957 11.1041 68.8957 11.1201 69.7277 11.1521C70.5597 11.1841 71.3437 11.2001 72.0797 11.2001C72.9117 11.2001 73.6637 11.1841 74.3357 11.1521C75.0077 11.1201 75.7277 11.1041 76.4957 11.1041C76.5917 11.5521 76.5917 12.0641 76.4957 12.6401C75.5677 12.7361 74.8317 12.8961 74.2877 13.1201C73.7757 13.3441 73.3117 13.6641 72.8957 14.0801C72.5117 14.4641 72.0317 14.9921 71.4557 15.6641C70.9757 16.2721 70.3197 17.0721 69.4877 18.0641C68.6877 19.0561 67.7917 20.1921 66.7997 21.4721C67.5997 22.6881 68.4157 23.9041 69.2477 25.1201C70.0797 26.3361 71.1517 27.8881 72.4637 29.7761C72.9117 30.3841 73.2957 30.8801 73.6157 31.2641C73.9677 31.6161 74.3837 31.8881 74.8637 32.0801C75.3757 32.2721 76.0957 32.4321 77.0237 32.5601C77.1197 33.0081 77.1197 33.5041 77.0237 34.0481C76.0317 34.0481 75.0397 34.0321 74.0477 34.0001C73.0877 33.9681 72.0957 33.9521 71.0717 33.9521C70.0797 33.9521 69.0077 33.9681 67.8557 34.0001C66.7357 34.0321 65.8077 34.0481 65.0717 34.0481Z" fill="#141414"/>
</g>
</svg>
